<svg width="55" height="57" viewBox="0 0 55 57" fill="none" xmlns="http://www.w3.org/2000/svg">
<path fill-rule="evenodd" clip-rule="evenodd" d="M24.9767 2C25.019 10.0645 17.0699 25.0381 47.5992 28.5639C28.6476 30.4543 25.3858 40.1913 24.9802 53.1761C24.5155 43.3743 23.565 31.9709 2 28.6999C22.9029 26.9759 22.5504 13.0051 24.9767 2Z" fill="#316CF9" stroke="#010C16" stroke-width="2.09362" stroke-miterlimit="1.5" stroke-linecap="round" stroke-linejoin="round"/>
<path d="M8.95215 10.0171C9.49336 10.5891 10.1464 11.1103 10.736 11.6591" stroke="#316CF9" stroke-width="2.09362" stroke-miterlimit="1.5" stroke-linecap="round" stroke-linejoin="round"/>
<path d="M2.80664 42.6405C3.98637 41.8285 5.20803 41.046 6.36976 40.2212" stroke="#316CF9" stroke-width="2.09362" stroke-miterlimit="1.5" stroke-linecap="round" stroke-linejoin="round"/>
<path d="M37.5117 16.2234C42.7326 12.9583 47.2739 9.37108 51.6697 5.5791" stroke="#316CF9" stroke-width="2.09362" stroke-miterlimit="1.5" stroke-linecap="round" stroke-linejoin="round"/>
<path d="M38.7861 42.9229C44.9414 45.5694 49.225 51.019 53.4838 54.9999" stroke="#316CF9" stroke-width="2.09362" stroke-miterlimit="1.5" stroke-linecap="round" stroke-linejoin="round"/>
</svg>
