<svg width="80" height="69" viewBox="0 0 80 69" fill="none" xmlns="http://www.w3.org/2000/svg">
<g clip-path="url(#clip0_341_668)">
<path d="M73.3333 0H6.66667C4.89921 0.00211714 3.20474 0.705176 1.95496 1.95496C0.705176 3.20474 0.00211714 4.89921 0 6.66667L0 54.6667C0.00211714 56.4341 0.705176 58.1286 1.95496 59.3784C3.20474 60.6281 4.89921 61.3312 6.66667 61.3333H46.6667V68C46.6667 68.2637 46.745 68.5214 46.8915 68.7406C47.038 68.9598 47.2462 69.1307 47.4898 69.2316C47.7334 69.3325 48.0014 69.3589 48.26 69.3074C48.5186 69.256 48.7562 69.1291 48.9427 68.9427L53.3333 64.552L57.724 68.9427C57.9105 69.1291 58.148 69.256 58.4066 69.3074C58.6652 69.3589 58.9333 69.3325 59.1769 69.2316C59.4205 69.1307 59.6287 68.9598 59.7752 68.7406C59.9217 68.5214 59.9999 68.2637 60 68V61.3333H73.3333C75.1008 61.3312 76.7953 60.6281 78.045 59.3784C79.2948 58.1286 79.9979 56.4341 80 54.6667V6.66667C79.9979 4.89921 79.2948 3.20474 78.045 1.95496C76.7953 0.705176 75.1008 0.00211714 73.3333 0ZM43.08 26.0867C42.9784 26.0398 42.8893 25.9695 42.82 25.8817C42.7508 25.7938 42.7033 25.6908 42.6814 25.581C42.6596 25.4713 42.664 25.3579 42.6944 25.2502C42.7247 25.1425 42.7801 25.0435 42.856 24.9613C43.4314 24.3359 43.7508 23.5172 43.7508 22.6673C43.7508 21.8175 43.4314 20.9987 42.856 20.3733C42.7799 20.291 42.7243 20.1919 42.6939 20.0839C42.6635 19.976 42.6591 19.8624 42.6811 19.7525C42.7031 19.6425 42.7508 19.5394 42.8204 19.4515C42.89 19.3635 42.9794 19.2933 43.0813 19.2467C43.8517 18.8882 44.4595 18.2536 44.7844 17.4684C45.1094 16.6832 45.1278 15.8047 44.836 15.0067C44.7972 14.9016 44.7838 14.7889 44.7969 14.6777C44.81 14.5666 44.8492 14.46 44.9114 14.3669C44.9736 14.2738 45.0569 14.1967 45.1546 14.142C45.2522 14.0873 45.3615 14.0564 45.4733 14.052C46.3226 14.0163 47.1275 13.6629 47.7286 13.0619C48.3296 12.4608 48.683 11.6559 48.7187 10.8067C48.723 10.6946 48.7539 10.5852 48.8087 10.4874C48.8635 10.3896 48.9407 10.3062 49.034 10.244C49.1273 10.1818 49.234 10.1426 49.3454 10.1296C49.4567 10.1167 49.5696 10.1303 49.6747 10.1693C50.473 10.4594 51.351 10.44 52.1358 10.115C52.9206 9.79002 53.5552 9.18293 53.9147 8.41333C53.9612 8.31154 54.0311 8.22223 54.1189 8.15278C54.2066 8.08332 54.3096 8.0357 54.4194 8.01383C54.5291 7.99196 54.6425 7.99646 54.7502 8.02697C54.8578 8.05749 54.9567 8.11313 55.0387 8.18933C56.336 9.38267 58.332 9.38267 59.628 8.18933C59.7102 8.11318 59.8092 8.05762 59.9171 8.02721C60.0249 7.9968 60.1384 7.99241 60.2483 8.01441C60.3581 8.0364 60.4612 8.08416 60.549 8.15374C60.6368 8.22332 60.7068 8.31275 60.7533 8.41467C61.1121 9.18454 61.7465 9.7919 62.5312 10.1168C63.316 10.4416 64.1941 10.4604 64.992 10.1693C65.0971 10.1303 65.2099 10.1167 65.3213 10.1296C65.4327 10.1426 65.5394 10.1818 65.6327 10.244C65.726 10.3062 65.8032 10.3896 65.858 10.4874C65.9128 10.5852 65.9436 10.6946 65.948 10.8067C65.9841 11.6571 66.3384 12.4629 66.9408 13.0642C67.5432 13.6656 68.3495 14.0186 69.2 14.0533C69.3118 14.0575 69.4211 14.0882 69.5187 14.1428C69.6164 14.1974 69.6998 14.2743 69.762 14.3673C69.8242 14.4604 69.8634 14.5668 69.8765 14.6779C69.8896 14.7891 69.8762 14.9017 69.8373 15.0067C69.5453 15.8049 69.5638 16.6836 69.889 17.4689C70.2142 18.2542 70.8225 18.8886 71.5933 19.2467C71.6949 19.2935 71.784 19.3638 71.8533 19.4517C71.9226 19.5395 71.97 19.6425 71.9919 19.7523C72.0137 19.862 72.0093 19.9754 71.979 20.0831C71.9486 20.1908 71.8932 20.2898 71.8173 20.372C71.2419 20.9974 70.9225 21.8162 70.9225 22.666C70.9225 23.5158 71.2419 24.3346 71.8173 24.96C71.8935 25.0423 71.949 25.1415 71.9794 25.2494C72.0098 25.3573 72.0142 25.4709 71.9922 25.5808C71.9702 25.6908 71.9225 25.794 71.8529 25.8819C71.7834 25.9698 71.6939 26.04 71.592 26.0867C70.8216 26.4452 70.2138 27.0798 69.8889 27.8649C69.564 28.6501 69.5456 29.5286 69.8373 30.3267C69.8761 30.4317 69.8895 30.5444 69.8764 30.6556C69.8633 30.7668 69.8241 30.8733 69.7619 30.9664C69.6998 31.0595 69.6164 31.1366 69.5188 31.1913C69.4211 31.2461 69.3119 31.2769 69.2 31.2813C68.3485 31.3155 67.541 31.6691 66.9384 32.2717C66.3358 32.8743 65.9822 33.6818 65.948 34.5333C65.9436 34.6454 65.9128 34.7548 65.858 34.8526C65.8032 34.9504 65.726 35.0338 65.6327 35.096C65.5394 35.1582 65.4327 35.1974 65.3213 35.2104C65.2099 35.2233 65.0971 35.2097 64.992 35.1707C64.1937 34.8803 63.3155 34.8995 62.5307 35.2245C61.7458 35.5496 61.1112 36.1569 60.752 36.9267C60.7073 37.0293 60.6381 37.1195 60.5504 37.1892C60.4628 37.2589 60.3594 37.3061 60.2493 37.3267C60.1394 37.3497 60.0255 37.3458 59.9173 37.3154C59.8091 37.285 59.7099 37.2289 59.628 37.152C59.0023 36.5768 58.1833 36.2575 57.3333 36.2575C56.4834 36.2575 55.6644 36.5768 55.0387 37.152C54.9567 37.2288 54.8575 37.2848 54.7493 37.3152C54.6412 37.3456 54.5273 37.3495 54.4173 37.3267C54.3071 37.3061 54.2035 37.2589 54.1157 37.1892C54.0279 37.1195 53.9584 37.0294 53.9133 36.9267C53.5548 36.1566 52.9205 35.549 52.1356 35.2241C51.3508 34.8992 50.4726 34.8806 49.6747 35.172C49.5696 35.2111 49.4567 35.2247 49.3454 35.2117C49.234 35.1987 49.1273 35.1595 49.034 35.0973C48.9407 35.0351 48.8635 34.9517 48.8087 34.8539C48.7539 34.7561 48.723 34.6467 48.7187 34.5347C48.6845 33.6828 48.331 32.8751 47.7285 32.272C47.1259 31.669 46.3185 31.3148 45.4667 31.28C45.3548 31.2758 45.2456 31.2451 45.1479 31.1906C45.0502 31.136 44.9669 31.059 44.9047 30.966C44.8425 30.873 44.8033 30.7665 44.7902 30.6554C44.7771 30.5443 44.7905 30.4316 44.8293 30.3267C45.1218 29.5293 45.1043 28.6511 44.7804 27.866C44.4564 27.0808 43.8496 26.4459 43.08 26.0867ZM57.7253 51.056L57.3333 51.448V38.9147C57.512 38.9147 57.684 38.9813 57.8147 39.1027C58.2042 39.4684 58.676 39.7352 59.1902 39.8804C59.7044 40.0257 60.246 40.0452 60.7693 39.9373C61.2922 39.8353 61.783 39.6093 62.2006 39.2785C62.6181 38.9477 62.9503 38.5216 63.1693 38.036C63.2447 37.8739 63.3782 37.746 63.5435 37.6778C63.7087 37.6097 63.8936 37.6062 64.0613 37.668C64.4667 37.812 64.896 37.876 65.3267 37.8587V51.448L62.2693 48.3907C62.0193 48.1407 61.6802 48.0003 61.3267 48.0003C60.9731 48.0003 60.634 48.1407 60.384 48.3907L57.7253 51.056ZM57.3333 64.7813L54.276 61.724C54.026 61.474 53.6869 61.3336 53.3333 61.3336C52.9798 61.3336 52.6407 61.474 52.3907 61.724L49.3333 64.7813V37.856C49.764 37.8733 50.1933 37.8093 50.5987 37.6653C50.766 37.6031 50.9507 37.6063 51.1158 37.6743C51.2809 37.7423 51.4143 37.87 51.4893 38.032C51.7089 38.5189 52.0423 38.9458 52.4613 39.2769C52.8804 39.6081 53.3729 39.8336 53.8973 39.9347C54.1507 39.9853 54.408 40.0067 54.6667 40V54.6667C54.6667 54.9303 54.745 55.1881 54.8915 55.4073C55.038 55.6265 55.2462 55.7973 55.4898 55.8982C55.7334 55.9991 56.0014 56.0255 56.26 55.9741C56.5186 55.9227 56.7562 55.7957 56.9427 55.6093L57.3333 55.2187V64.7813ZM77.3333 54.6667C77.3333 55.7275 76.9119 56.7449 76.1618 57.4951C75.4116 58.2452 74.3942 58.6667 73.3333 58.6667H60V52.552L61.3333 51.2187L65.724 55.6093C65.9105 55.7957 66.148 55.9227 66.4066 55.9741C66.6652 56.0255 66.9333 55.9991 67.1769 55.8982C67.4205 55.7973 67.6287 55.6265 67.7752 55.4073C67.9217 55.1881 67.9999 54.9303 68 54.6667V36.4093C68.3733 35.8867 68.5853 35.268 68.612 34.6267C68.6199 34.4483 68.6943 34.2793 68.8207 34.1531C68.9471 34.027 69.1162 33.9528 69.2947 33.9453C69.8276 33.9248 70.348 33.7783 70.8133 33.5178C71.2787 33.2574 71.6757 32.8904 71.9719 32.447C72.2681 32.0035 72.4551 31.4962 72.5174 30.9666C72.5798 30.437 72.5158 29.9001 72.3307 29.4C72.2693 29.2326 72.273 29.0483 72.3412 28.8836C72.4094 28.7188 72.537 28.5857 72.6987 28.5107C73.1835 28.2879 73.6086 27.9535 73.9392 27.5347C74.2697 27.1159 74.4964 26.6248 74.6004 26.1015C74.7045 25.5782 74.6831 25.0378 74.5379 24.5244C74.3928 24.011 74.128 23.5393 73.7653 23.148C73.6445 23.0166 73.5774 22.8445 73.5774 22.666C73.5774 22.4874 73.6445 22.3154 73.7653 22.184C74.128 21.7928 74.3928 21.3213 74.538 20.8079C74.6831 20.2946 74.7046 19.7542 74.6005 19.2311C74.4964 18.7079 74.2697 18.2168 73.9392 17.7982C73.6086 17.3795 73.1834 17.0452 72.6987 16.8227C72.5365 16.7481 72.4084 16.6151 72.34 16.4503C72.2715 16.2854 72.2677 16.1008 72.3293 15.9333C72.5144 15.4332 72.5784 14.8964 72.5161 14.3667C72.4537 13.8371 72.2668 13.3298 71.9706 12.8864C71.6744 12.4429 71.2774 12.0759 70.812 11.8155C70.3466 11.555 69.8262 11.4085 69.2933 11.388C69.1149 11.3805 68.9458 11.3063 68.8194 11.1802C68.693 11.054 68.6185 10.8851 68.6107 10.7067C68.5907 10.1736 68.4447 9.65287 68.1846 9.18715C67.9245 8.72144 67.5577 8.32402 67.1143 8.0275C66.6709 7.73098 66.1635 7.54379 65.6337 7.4813C65.1039 7.41881 64.5669 7.48279 64.0667 7.668C63.8994 7.73116 63.7144 7.72844 63.549 7.66037C63.3837 7.5923 63.2503 7.46396 63.176 7.30133C62.9533 6.81652 62.6188 6.39141 62.2001 6.06083C61.7813 5.73026 61.2901 5.50364 60.7669 5.39956C60.2436 5.29548 59.7031 5.3169 59.1897 5.46206C58.6763 5.60722 58.2046 5.87199 57.8133 6.23467C57.6821 6.35545 57.5103 6.42249 57.332 6.42249C57.1537 6.42249 56.9819 6.35545 56.8507 6.23467C56.4595 5.87199 55.9879 5.6072 55.4746 5.46203C54.9613 5.31686 54.4209 5.29545 53.8977 5.39954C53.3746 5.50363 52.8835 5.73026 52.4649 6.06084C52.0462 6.39143 51.7119 6.81655 51.4893 7.30133C51.4147 7.46409 51.2812 7.59254 51.1157 7.66082C50.9502 7.7291 50.765 7.73214 50.5973 7.66933C50.0971 7.48412 49.5601 7.42014 49.0303 7.48263C48.5005 7.54512 47.9931 7.73231 47.5497 8.02883C47.1063 8.32536 46.7395 8.72277 46.4794 9.18849C46.2193 9.6542 46.0733 10.1749 46.0533 10.708C46.0455 10.8864 45.971 11.0554 45.8446 11.1815C45.7182 11.3077 45.5491 11.3818 45.3707 11.3893C44.8378 11.4099 44.3174 11.5564 43.852 11.8168C43.3866 12.0773 42.9896 12.4442 42.6934 12.8877C42.3972 13.3311 42.2103 13.8385 42.1479 14.3681C42.0856 14.8977 42.1496 15.4345 42.3347 15.9347C42.3961 16.102 42.3923 16.2864 42.3241 16.4511C42.256 16.6158 42.1284 16.7489 41.9667 16.824C41.4819 17.0467 41.0567 17.3812 40.7262 17.7999C40.3956 18.2187 40.169 18.7099 40.0649 19.2331C39.9608 19.7564 39.9822 20.2969 40.1274 20.8103C40.2726 21.3237 40.5373 21.7954 40.9 22.1867C41.0209 22.3181 41.088 22.4901 41.088 22.6687C41.088 22.8472 41.0209 23.0192 40.9 23.1507C40.5373 23.5418 40.2725 24.0134 40.1274 24.5267C39.9822 25.04 39.9608 25.5804 40.0649 26.1036C40.169 26.6268 40.3956 27.1178 40.7262 27.5365C41.0568 27.9551 41.4819 28.2894 41.9667 28.512C42.1288 28.5866 42.2569 28.7195 42.3254 28.8844C42.3938 29.0492 42.3976 29.2338 42.336 29.4013C42.1509 29.9014 42.0869 30.4383 42.1493 30.9679C42.2116 31.4975 42.3985 32.0049 42.6947 32.4483C42.9909 32.8918 43.388 33.2587 43.8533 33.5192C44.3187 33.7796 44.8391 33.9261 45.372 33.9467C45.7413 33.9627 46.0387 34.2587 46.0547 34.628C46.0813 35.268 46.2947 35.8867 46.6667 36.4093V58.6667H6.66667C5.6058 58.6667 4.58839 58.2452 3.83824 57.4951C3.08809 56.7449 2.66667 55.7275 2.66667 54.6667V6.66667C2.66667 5.6058 3.08809 4.58838 3.83824 3.83824C4.58839 3.08809 5.6058 2.66667 6.66667 2.66667H73.3333C74.3942 2.66667 75.4116 3.08809 76.1618 3.83824C76.9119 4.58838 77.3333 5.6058 77.3333 6.66667V54.6667Z" fill="#316CF9"/>
<path d="M14.6667 47.9998C13.6058 47.9998 12.5884 47.5784 11.8382 46.8283C11.0881 46.0781 10.6667 45.0607 10.6667 43.9998V17.3332C10.6667 16.2723 11.0881 15.2549 11.8382 14.5047C12.5884 13.7546 13.6058 13.3332 14.6667 13.3332H38.6667C39.0203 13.3332 39.3594 13.1927 39.6095 12.9426C39.8595 12.6926 40 12.3535 40 11.9998C40 11.6462 39.8595 11.3071 39.6095 11.057C39.3594 10.807 39.0203 10.6665 38.6667 10.6665H14.6667C12.8992 10.6686 11.2047 11.3717 9.95496 12.6215C8.70518 13.8712 8.00212 15.5657 8 17.3332V43.9998C8.00212 45.7673 8.70518 47.4618 9.95496 48.7115C11.2047 49.9613 12.8992 50.6644 14.6667 50.6665H40C40.3536 50.6665 40.6928 50.526 40.9428 50.276C41.1929 50.0259 41.3333 49.6868 41.3333 49.3332C41.3333 48.9795 41.1929 48.6404 40.9428 48.3904C40.6928 48.1403 40.3536 47.9998 40 47.9998H14.6667Z" fill="#316CF9"/>
<path d="M16.0001 32H34.6668C35.0204 32 35.3596 31.8595 35.6096 31.6095C35.8597 31.3594 36.0001 31.0203 36.0001 30.6667C36.0001 30.313 35.8597 29.9739 35.6096 29.7239C35.3596 29.4738 35.0204 29.3333 34.6668 29.3333H16.0001C15.6465 29.3333 15.3074 29.4738 15.0573 29.7239C14.8073 29.9739 14.6668 30.313 14.6668 30.6667C14.6668 31.0203 14.8073 31.3594 15.0573 31.6095C15.3074 31.8595 15.6465 32 16.0001 32ZM16.0001 26.6667H34.6668C35.0204 26.6667 35.3596 26.5262 35.6096 26.2761C35.8597 26.0261 36.0001 25.687 36.0001 25.3333C36.0001 24.9797 35.8597 24.6406 35.6096 24.3905C35.3596 24.1405 35.0204 24 34.6668 24H16.0001C15.6465 24 15.3074 24.1405 15.0573 24.3905C14.8073 24.6406 14.6668 24.9797 14.6668 25.3333C14.6668 25.687 14.8073 26.0261 15.0573 26.2761C15.3074 26.5262 15.6465 26.6667 16.0001 26.6667ZM16.0001 21.3333H34.6668C35.0204 21.3333 35.3596 21.1929 35.6096 20.9428C35.8597 20.6928 36.0001 20.3536 36.0001 20C36.0001 19.6464 35.8597 19.3072 35.6096 19.0572C35.3596 18.8071 35.0204 18.6667 34.6668 18.6667H16.0001C15.6465 18.6667 15.3074 18.8071 15.0573 19.0572C14.8073 19.3072 14.6668 19.6464 14.6668 20C14.6668 20.3536 14.8073 20.6928 15.0573 20.9428C15.3074 21.1929 15.6465 21.3333 16.0001 21.3333ZM14.7775 44.5333C14.8474 44.694 14.9484 44.8392 15.0745 44.9608C15.2007 45.0824 15.3495 45.1779 15.5126 45.2419C15.6757 45.3059 15.8498 45.3372 16.0249 45.3339C16.2001 45.3306 16.3729 45.2928 16.5335 45.2227C17.7679 44.7641 18.9023 44.0719 19.8748 43.184C20.2358 42.8237 20.5515 42.4208 20.8148 41.984C21.3241 42.5573 21.9215 43.0427 22.5868 43.424C23.5135 44.0293 24.6668 44.1773 25.7161 43.824C26.1188 43.668 26.4828 43.4267 26.7828 43.1173C27.3868 43.4947 28.0508 43.7627 28.7468 43.9107L29.7548 44.1493C31.8121 44.752 33.9495 45.0347 36.0935 44.9893C36.2681 44.9767 36.4386 44.9298 36.5951 44.8514C36.7517 44.7729 36.8912 44.6643 37.0058 44.5319C37.1204 44.3995 37.2078 44.2458 37.263 44.0796C37.3182 43.9134 37.3401 43.738 37.3275 43.5633C37.3149 43.3887 37.268 43.2182 37.1895 43.0617C37.111 42.9051 37.0025 42.7656 36.87 42.651C36.7376 42.5364 36.5839 42.449 36.4177 42.3938C36.2516 42.3386 36.0761 42.3167 35.9015 42.3293C34.0308 42.3533 32.1681 42.0933 30.3761 41.556L29.3455 41.312C28.1015 41.0253 27.7815 40.524 27.6495 40.1707C27.5371 39.8706 27.3203 39.621 27.0389 39.4676C26.7576 39.3142 26.4304 39.2673 26.1172 39.3355C25.8041 39.4037 25.526 39.5823 25.3338 39.8388C25.1417 40.0952 25.0483 40.4123 25.0708 40.732C25.0781 40.8495 25.0545 40.9668 25.0023 41.0723C24.9502 41.1778 24.8713 41.2678 24.7735 41.3333C24.4619 41.3729 24.1471 41.2918 23.8935 41.1067C22.8152 40.4354 22.0043 39.4095 21.6001 38.2053C21.4891 37.9054 21.274 37.6553 20.994 37.5007C20.7139 37.3461 20.3877 37.2974 20.0747 37.3633C19.7617 37.4293 19.4829 37.6056 19.289 37.86C19.0952 38.1144 18.9993 38.4301 19.0188 38.7493C19.0299 39.2212 18.944 39.6904 18.7665 40.1277C18.589 40.5651 18.3236 40.9613 17.9868 41.292C17.2464 41.9395 16.3918 42.4432 15.4668 42.7773C15.3062 42.8473 15.1609 42.9483 15.0394 43.0744C14.9178 43.2005 14.8222 43.3494 14.7582 43.5125C14.6942 43.6756 14.663 43.8497 14.6663 44.0248C14.6696 44.2 14.7073 44.3728 14.7775 44.5333ZM57.3335 33.3333C59.4431 33.3333 61.5054 32.7077 63.2595 31.5357C65.0137 30.3636 66.3808 28.6977 67.1882 26.7486C67.9955 24.7996 68.2067 22.6548 67.7952 20.5857C67.3836 18.5166 66.3677 16.616 64.8759 15.1242C63.3842 13.6324 61.4836 12.6165 59.4144 12.205C57.3453 11.7934 55.2006 12.0046 53.2515 12.812C51.3024 13.6193 49.6365 14.9865 48.4645 16.7406C47.2924 18.4947 46.6668 20.557 46.6668 22.6667C46.67 25.4947 47.7948 28.2059 49.7945 30.2056C51.7942 32.2053 54.5055 33.3302 57.3335 33.3333ZM57.3335 14.6667C58.384 14.6667 59.4243 14.8736 60.3949 15.2756C61.3655 15.6777 62.2474 16.2669 62.9903 17.0098C63.7332 17.7527 64.3225 18.6346 64.7245 19.6052C65.1265 20.5758 65.3335 21.6161 65.3335 22.6667C65.3335 23.7172 65.1265 24.7575 64.7245 25.7281C64.3225 26.6987 63.7332 27.5807 62.9903 28.3235C62.2474 29.0664 61.3655 29.6557 60.3949 30.0577C59.4243 30.4597 58.384 30.6667 57.3335 30.6667C55.2117 30.6667 53.1769 29.8238 51.6766 28.3235C50.1763 26.8232 49.3335 24.7884 49.3335 22.6667C49.3335 20.5449 50.1763 18.5101 51.6766 17.0098C53.1769 15.5095 55.2117 14.6667 57.3335 14.6667Z" fill="#316CF9"/>
</g>
<defs>
<clipPath id="clip0_341_668">
<rect width="80" height="69.3333" fill="white"/>
</clipPath>
</defs>
</svg>
