<svg width="80" height="80" viewBox="0 0 80 80" fill="none" xmlns="http://www.w3.org/2000/svg">
<path d="M44.8608 23.0141C45.0707 23.0141 45.2772 22.9612 45.4613 22.8603L49.4577 20.6711C50.1541 21.3123 51.083 21.705 52.1021 21.705C54.2567 21.705 56.0096 19.952 56.0096 17.7973C56.0096 15.6427 54.2566 13.8897 52.1021 13.8897C49.9474 13.8897 48.1944 15.6427 48.1944 17.7973C48.1944 18.03 48.216 18.2577 48.2552 18.4794L44.5408 20.5141H39.7238V16.8411H43.2552C43.4607 16.8411 43.6631 16.7904 43.8443 16.6936C44.0256 16.5967 44.1802 16.4566 44.2944 16.2858L46.0821 13.6117C46.4069 13.6995 46.748 13.7472 47.1002 13.7472C49.2549 13.7472 51.0077 11.9942 51.0077 9.83953C51.0077 7.68484 49.2549 5.93188 47.1002 5.93188C44.9455 5.93188 43.1925 7.68484 43.1925 9.83953C43.1919 10.7013 43.4776 11.5389 44.0049 12.2206L42.5872 14.3412H39.7238V9.27969C39.7238 8.94817 39.5921 8.63022 39.3577 8.3958C39.1232 8.16138 38.8053 8.02969 38.4738 8.02969H35.1627C34.8312 8.02969 34.5132 8.16138 34.2788 8.3958C34.0444 8.63022 33.9127 8.94817 33.9127 9.27969V11.6069C32.2988 12.0247 30.7512 12.6662 29.315 13.5127L27.6685 11.8663C27.434 11.6319 27.1161 11.5002 26.7846 11.5002C26.4531 11.5002 26.1352 11.6319 25.9008 11.8663L21.218 16.5489C21.1019 16.665 21.0098 16.8028 20.947 16.9544C20.8842 17.1061 20.8519 17.2686 20.8519 17.4327C20.8519 17.5969 20.8842 17.7594 20.947 17.9111C21.0098 18.0627 21.1019 18.2005 21.218 18.3166L22.8647 19.9633C22.0182 21.3995 21.3767 22.947 20.9589 24.5609H18.6316C18.3001 24.5609 17.9821 24.6926 17.7477 24.9271C17.5133 25.1615 17.3816 25.4794 17.3816 25.8109V32.4333C17.3816 32.7648 17.5133 33.0827 17.7477 33.3172C17.9821 33.5516 18.3001 33.6833 18.6316 33.6833H20.9589C21.3768 35.2971 22.0182 36.8446 22.8646 38.2808L21.218 39.9273C20.9836 40.1618 20.8519 40.4797 20.8519 40.8112C20.8519 41.1427 20.9836 41.4606 21.218 41.695L25.9007 46.3778C26.0167 46.4939 26.1545 46.586 26.3062 46.6488C26.4579 46.7116 26.6204 46.7439 26.7846 46.7439C26.9487 46.7439 27.1113 46.7116 27.2629 46.6488C27.4146 46.586 27.5524 46.4939 27.6685 46.3778L29.3152 44.7311C30.7514 45.5775 32.2989 46.219 33.9127 46.6369V48.9642C33.9127 49.2957 34.0444 49.6137 34.2788 49.8481C34.5132 50.0825 34.8312 50.2142 35.1627 50.2142H38.4738C38.8053 50.2142 39.1232 50.0825 39.3577 49.8481C39.5921 49.6137 39.7238 49.2957 39.7238 48.9642V43.9031H42.5872L44.0049 46.0238C43.4776 46.7054 43.1919 47.543 43.1925 48.4048C43.1925 50.5595 44.9455 52.3125 47.1002 52.3125C49.2549 52.3125 51.0077 50.5595 51.0077 48.4048C51.0077 46.2502 49.2547 44.4972 47.1002 44.4972C46.748 44.4972 46.4069 44.5448 46.0821 44.6325L44.2944 41.9583C44.1802 41.7874 44.0256 41.6474 43.8443 41.5505C43.6631 41.4536 43.4607 41.403 43.2552 41.403H39.7238V37.7302H44.5408L48.2552 39.7648C48.215 39.99 48.1947 40.2182 48.1944 40.4469C48.1944 42.6016 49.9474 44.3545 52.1021 44.3545C54.2567 44.3545 56.0096 42.6016 56.0096 40.4469C56.0096 38.2922 54.2566 36.5392 52.1021 36.5392C51.083 36.5392 50.1541 36.9317 49.4577 37.573L45.4613 35.3838C45.2772 35.2829 45.0707 35.23 44.8608 35.23H39.7239V30.3719H48.4008C48.9235 31.9152 50.3847 33.0295 52.1022 33.0295C54.2569 33.0295 56.0097 31.2766 56.0097 29.1219C56.0097 26.9672 54.2567 25.2142 52.1022 25.2142C50.3847 25.2142 48.9235 26.3286 48.4008 27.8719H39.7239V23.0141H44.8608ZM37.2239 17.6227C31.4313 18.2481 26.9061 23.1659 26.9061 29.122C26.9061 35.0781 31.4313 39.9959 37.2239 40.6214V47.7145H36.4128V45.6417C36.4129 45.3526 36.3126 45.0724 36.1293 44.8489C35.9459 44.6254 35.6907 44.4723 35.4072 44.4158C33.4077 44.0172 31.531 43.2392 29.8292 42.1037C29.5888 41.9434 29.3002 41.8713 29.0125 41.8997C28.7249 41.9281 28.456 42.0553 28.2516 42.2597L26.7847 43.7266L23.8699 40.8114L25.3366 39.3447C25.541 39.1403 25.6682 38.8713 25.6966 38.5836C25.725 38.296 25.6529 38.0073 25.4924 37.7669C24.3574 36.0662 23.5796 34.1895 23.1805 32.1889C23.1239 31.9054 22.9709 31.6503 22.7474 31.467C22.5239 31.2837 22.2438 31.1835 21.9547 31.1834H19.8817V27.0609H21.9547C22.2439 27.0609 22.524 26.9607 22.7476 26.7773C22.9711 26.5939 23.1242 26.3387 23.1807 26.0552C23.5791 24.0556 24.3571 22.1789 25.4925 20.4772C25.653 20.2368 25.7252 19.9481 25.6967 19.6605C25.6683 19.3728 25.541 19.1039 25.3366 18.8995L23.8699 17.4327L26.7849 14.5177L28.2516 15.9842C28.456 16.1887 28.7249 16.316 29.0126 16.3444C29.3003 16.3728 29.589 16.3005 29.8294 16.14C31.5303 15.0048 33.4069 14.2269 35.4074 13.828C35.6909 13.7715 35.946 13.6184 36.1294 13.3949C36.3127 13.1714 36.413 12.8913 36.413 12.6022V10.5297H37.2241V17.6227H37.2239ZM72.3753 45.7398C71.7203 41.8709 69.7685 39.4092 68.2002 37.4313C66.7936 35.6572 65.68 34.253 65.6617 32.3141C66.4699 22.4172 64.1241 14.1745 58.8764 8.47453C56.4146 5.80047 53.3414 3.73609 49.7424 2.33891C46.0116 0.890469 41.6986 0.15625 36.9233 0.15625C30.0041 0.15625 23.7407 2.15953 18.8103 5.94969C14.3225 9.39953 10.9813 14.2436 9.14768 19.9581C7.19128 26.0558 7.09549 32.8162 8.87815 38.9941C10.7369 45.4356 14.4669 50.878 19.6836 54.7716C20.0611 62.717 17.8819 68.9505 16.2807 73.5314C15.5794 75.5375 15.0255 77.1222 14.8444 78.4211C14.8197 78.5981 14.8332 78.7784 14.8841 78.9498C14.935 79.1212 15.022 79.2796 15.1394 79.4145C15.2567 79.5493 15.4017 79.6574 15.5644 79.7315C15.7271 79.8055 15.9038 79.8438 16.0825 79.8438H16.085L50.2669 79.7772C50.598 79.7765 50.9153 79.6445 51.1492 79.4102C51.383 79.1758 51.5144 78.8583 51.5144 78.5272C51.5144 75.3973 50.4907 72.6209 49.6682 70.3902C48.2766 66.6161 48.2849 65.8978 49.7278 65.2663C50.5528 64.905 53.0416 65.5086 55.0411 65.9936C58.7905 66.903 62.6675 67.8431 64.4514 65.6231C64.5686 65.4772 64.6516 65.3068 64.6942 65.1245C65.5869 61.3033 66.4283 60.0916 66.9852 59.2897C67.4788 58.5791 67.9449 57.9077 67.9449 56.4305C67.9449 56.238 67.9004 56.0481 67.815 55.8756C67.7296 55.7032 67.6055 55.5527 67.4524 55.4361C66.6313 54.8106 66.0469 54.3306 65.7047 54.0008C66.2196 53.7816 66.9872 53.5336 67.3014 53.4322C67.5518 53.3513 67.7703 53.1935 67.9257 52.9813C68.0812 52.769 68.1658 52.5131 68.1674 52.25L68.1936 47.777L71.3749 47.1767C71.6966 47.116 71.9816 46.9314 72.1687 46.6627C72.3558 46.394 72.43 46.0627 72.3753 45.7398ZM66.7177 45.5114C66.4327 45.5652 66.1752 45.7164 65.9895 45.9392C65.8037 46.1619 65.7011 46.4423 65.6994 46.7323L65.6724 51.3367C64.2502 51.8247 63.1244 52.3644 62.9289 53.508C62.7208 54.7252 63.7 55.6884 65.3955 57.0084C65.3307 57.2891 65.1928 57.4875 64.9314 57.8639C64.2846 58.7953 63.3163 60.1898 62.343 64.2055C61.3061 64.9408 57.9166 64.1186 55.6302 63.5641C52.7822 62.8733 50.3227 62.2766 48.7253 62.9761C46.9847 63.7378 46.1147 65.0094 46.1394 66.7553C46.1585 68.0981 46.6978 69.5612 47.3224 71.2552C47.9907 73.0678 48.7342 75.0842 48.9514 77.28L17.6488 77.3409C17.8986 76.4788 18.2533 75.4642 18.6405 74.3566C20.2546 69.7392 22.6936 62.7612 22.1466 54.0338C22.135 53.8485 22.0822 53.6682 21.9923 53.5059C21.9023 53.3435 21.7772 53.2033 21.6263 53.0953C11.8164 46.0775 7.66393 32.7652 11.528 20.7219C15.1577 9.40969 24.6513 2.65625 36.9233 2.65625C45.6811 2.65625 52.4485 5.18344 57.0372 10.1678C61.8088 15.3505 63.928 22.9563 63.166 32.1623C63.1632 32.1966 63.1617 32.231 63.1617 32.2655C63.1617 35.1003 64.6577 36.9869 66.2414 38.9844C67.5771 40.6691 68.9524 42.4033 69.6477 44.9586L66.7177 45.5114Z" fill="#316CF9"/>
</svg>
