<svg width="81" height="70" viewBox="0 0 81 70" fill="none" xmlns="http://www.w3.org/2000/svg">
<rect width="81" height="70" fill="#DFDFDF"/>
<g id="DLMS Lamding">
<g id="Desktop - 19" clip-path="url(#clip0_65_175)">
<rect width="1440" height="533" transform="translate(-230 -252)" fill="#316CF9"/>
<g id="Frame 1171274822" clip-path="url(#clip1_65_175)">
<g id="div.col-xl-4">
<g id="div.feature-card" filter="url(#filter0_dd_65_175)">
<rect x="-167.5" y="-40" width="415" height="266.772" rx="8" fill="white"/>
<g id="Group 1171274818">
<g id="Group">
<path id="Vector" d="M56.1322 19.638C50.9091 19.4451 45.4602 19.5753 40.9882 21.8254C40.7514 21.9446 40.5303 21.9446 40.2935 21.8254C35.8215 19.5769 30.3726 19.4467 25.1495 19.6396H25.1432C24.5087 19.6643 23.9086 19.9343 23.469 20.3925C23.0295 20.8508 22.7848 21.4617 22.7865 22.0967V24.0175H20.4046C19.0812 24.0175 18.004 25.0948 18.004 26.4182V48.0288C18.004 49.3522 19.0812 50.4294 20.4046 50.4294H60.8786C62.2021 50.4294 63.2793 49.3522 63.2793 48.0288V26.415C63.2793 25.0916 62.2021 24.0144 60.8786 24.0144H58.4968V22.0951C58.4973 21.4592 58.2511 20.8478 57.8101 20.3896C57.3692 19.9314 56.7677 19.662 56.1322 19.638ZM55.988 22.1406V42.6065C51.1757 42.4293 46.1658 42.5391 41.8945 44.3753V24.2857C41.8945 24.2449 41.8929 24.2057 41.8882 24.1665C41.9651 24.1351 42.0403 24.1006 42.1156 24.063C46.0686 22.0747 51.1208 21.9618 55.988 22.1406ZM25.2922 22.1406C30.1641 21.9634 35.2131 22.0763 39.1646 24.063C39.2398 24.1006 39.3151 24.1351 39.3919 24.1665C39.3888 24.2057 39.3857 24.2449 39.3857 24.2857V44.3768C35.9862 42.9154 32.1194 42.5454 28.2558 42.5454C27.2648 42.5454 26.2738 42.5689 25.2906 42.6049V22.1406H25.2922ZM60.7705 26.5217V47.919H20.5097V26.5217H22.7849V42.6567C22.7849 43.3403 23.0452 43.9519 23.5376 44.4254C24.0237 44.8943 24.6415 45.1295 25.3298 45.1138C30.1703 44.9335 35.1974 45.0417 39.1646 47.0346C39.6412 47.2745 40.1399 47.3937 40.6401 47.3937C41.1387 47.3937 41.6389 47.2745 42.114 47.0346C46.0827 45.0417 51.1098 44.9335 55.9644 45.1138C56.6371 45.131 57.2565 44.8943 57.7426 44.4254C58.2349 43.9503 58.4952 43.3388 58.4952 42.6551V26.5201H60.7705V26.5217ZM26.9104 25.3347C26.9104 24.6416 27.4718 24.0818 28.1633 24.0818C31.696 24.0818 34.4542 24.3844 36.8439 25.032C37.5119 25.2139 37.907 25.9023 37.7251 26.5703C37.6379 26.891 37.4268 27.164 37.1384 27.3293C36.85 27.4945 36.5077 27.5385 36.1869 27.4515C34.0183 26.8635 31.4687 26.5891 28.1633 26.5891C27.4718 26.5875 26.9104 26.0262 26.9104 25.3347ZM43.555 26.5703C43.3732 25.9023 43.7683 25.2139 44.4363 25.032C46.826 24.3829 49.5841 24.0818 53.1169 24.0818C53.81 24.0818 54.3698 24.6432 54.3698 25.3347C54.3698 26.0262 53.8084 26.5875 53.1169 26.5875C49.8115 26.5875 47.2619 26.8619 45.0933 27.4499C44.9835 27.4797 44.8722 27.4938 44.764 27.4938C44.489 27.4942 44.2215 27.4039 44.003 27.237C43.7845 27.07 43.627 26.8357 43.555 26.5703ZM54.3698 29.8412C54.3698 30.5343 53.8084 31.094 53.1169 31.094C49.8146 31.094 47.265 31.3669 45.0917 31.9533C44.982 31.9831 44.8722 31.9972 44.764 31.9972C44.4601 31.997 44.1667 31.8865 43.9382 31.686C43.7098 31.4856 43.562 31.209 43.5223 30.9078C43.4826 30.6065 43.5537 30.3011 43.7224 30.0483C43.8912 29.7956 44.146 29.6127 44.4394 29.5338C46.8307 28.8894 49.5888 28.5883 53.1169 28.5883C53.8084 28.5883 54.3698 29.1497 54.3698 29.8412ZM26.9104 29.8412C26.9104 29.1481 27.4718 28.5883 28.1633 28.5883C31.6913 28.5883 34.4495 28.8894 36.8407 29.5338C37.5087 29.7142 37.9054 30.4025 37.7251 31.0705C37.5746 31.6287 37.0681 31.9972 36.5162 31.9972C36.408 31.9972 36.2982 31.9831 36.1884 31.9533C34.0152 31.3669 31.4655 31.094 28.1633 31.094C27.4718 31.0956 26.9104 30.5343 26.9104 29.8412ZM26.9104 34.3508C26.9088 33.6593 27.4702 33.0964 28.1617 33.0948H28.2511C31.7196 33.0948 34.4511 33.3959 36.8423 34.0404C37.5103 34.2207 37.907 34.9091 37.7267 35.577C37.5761 36.1353 37.0697 36.5037 36.5177 36.5037C36.4095 36.5037 36.2998 36.4896 36.19 36.4598C34.0183 35.875 31.4938 35.6006 28.2526 35.6006H28.1648C27.4718 35.6021 26.9104 35.0423 26.9104 34.3508ZM53.1185 33.0948C53.2831 33.095 53.4461 33.1277 53.5982 33.191C53.7502 33.2542 53.8882 33.3468 54.0045 33.4635C54.1207 33.5801 54.2128 33.7185 54.2754 33.8708C54.3381 34.023 54.3702 34.1862 54.3698 34.3508C54.3682 35.0423 53.8084 35.6021 53.1169 35.6021C53.084 35.6006 53.0589 35.6021 53.0291 35.6021C49.788 35.6021 47.2634 35.875 45.0917 36.4614C44.982 36.4912 44.8722 36.5053 44.764 36.5053C44.4601 36.5051 44.1667 36.3945 43.9382 36.1941C43.7098 35.9937 43.562 35.7171 43.5223 35.4158C43.4826 35.1146 43.5537 34.8091 43.7224 34.5564C43.8912 34.3037 44.146 34.1208 44.4394 34.0419C46.8495 33.3912 49.6123 33.087 53.1185 33.0948ZM26.9104 38.8511C26.9104 38.158 27.4718 37.5982 28.1633 37.5982C31.696 37.5982 34.4542 37.9009 36.8439 38.5485C37.5119 38.7303 37.907 39.4187 37.7251 40.0867C37.6379 40.4074 37.4268 40.6804 37.1384 40.8457C36.85 41.0109 36.5077 41.0549 36.1869 40.9679C34.0183 40.3799 31.4687 40.1055 28.1633 40.1055C27.4718 40.1055 26.9104 39.5442 26.9104 38.8511ZM43.555 40.0867C43.3732 39.4187 43.7683 38.7303 44.4363 38.5485C46.8244 37.8993 49.5841 37.5982 53.1169 37.5982C53.81 37.5982 54.3698 38.1596 54.3698 38.8511C54.3698 39.5426 53.8084 40.1039 53.1169 40.1039C49.8115 40.1039 47.2619 40.3783 45.0933 40.9664C44.9835 40.9961 44.8722 41.0103 44.764 41.0103C44.489 41.0106 44.2215 40.9203 44.003 40.7534C43.7845 40.5864 43.627 40.3521 43.555 40.0867ZM72.1528 50.2428C69.3272 56.0759 64.943 61.0073 59.4737 64.5056C53.8539 68.0995 47.3418 70 40.6401 70C31.533 70 22.9072 66.5205 16.3513 60.2014C10.3112 54.3793 6.61383 46.7179 5.80786 38.4465L2.74393 42.4089C2.62679 42.5606 2.47636 42.6833 2.30426 42.7676C2.13216 42.8519 1.94299 42.8955 1.75136 42.895C1.48323 42.895 1.21353 42.8104 0.986166 42.6332C0.723377 42.4298 0.552127 42.1303 0.510078 41.8007C0.468029 41.4711 0.558623 41.1383 0.761938 40.8754L5.90037 34.2301C6.10381 33.9672 6.40327 33.7957 6.733 33.7534C7.06385 33.7111 7.39627 33.802 7.6597 34.0059L14.305 39.149C14.5617 39.3545 14.7273 39.6526 14.7662 39.979C14.8051 40.3055 14.7141 40.6341 14.5129 40.8942C14.3118 41.1542 14.0165 41.3247 13.6907 41.369C13.3649 41.4133 13.0348 41.3278 12.7715 41.131L8.25399 37.6359C9.59152 54.4843 23.5658 67.4943 40.6401 67.4943C53.015 67.4943 64.4992 60.2939 69.8964 49.1515C70.199 48.529 70.9485 48.2687 71.571 48.5697C72.1936 48.8708 72.4538 49.6203 72.1528 50.2428ZM80.5198 29.1246L75.3814 35.7652C75.2642 35.9169 75.1138 36.0396 74.9417 36.1238C74.7696 36.2081 74.5804 36.2517 74.3888 36.2513C74.1207 36.2513 73.851 36.1666 73.6236 35.9894L66.9783 30.851C66.7216 30.6455 66.556 30.3474 66.5171 30.021C66.4782 29.6945 66.5692 29.3659 66.7704 29.1058C66.9715 28.8458 67.2668 28.6753 67.5926 28.631C67.9184 28.5867 68.2485 28.6722 68.5118 28.869L73.0246 32.3594C71.6808 15.5298 57.6673 2.50571 40.6401 2.50571C28.077 2.50571 16.864 9.53519 11.3791 20.8501C11.0764 21.4726 10.3269 21.7329 9.70441 21.4318C9.08191 21.1292 8.82161 20.3797 9.12267 19.7572C11.9498 13.9241 16.3356 8.99265 21.8065 5.49438C27.4263 1.89888 33.9383 0 40.6401 0C49.7033 0 58.2992 3.45123 64.8442 9.71708C70.9281 15.5439 74.6601 23.2398 75.4707 31.5519L78.5362 27.5895C78.7396 27.3267 79.039 27.1555 79.3687 27.1134C79.6983 27.0714 80.0312 27.1619 80.294 27.3653C80.8428 27.7902 80.9432 28.5773 80.5198 29.1246Z" fill="#316CF9"/>
</g>
</g>
</g>
</g>
</g>
</g>
</g>
<defs>
<filter id="filter0_dd_65_175" x="-231.5" y="-153" width="495" height="403.772" filterUnits="userSpaceOnUse" color-interpolation-filters="sRGB">
<feFlood flood-opacity="0" result="BackgroundImageFix"/>
<feColorMatrix in="SourceAlpha" type="matrix" values="0 0 0 0 0 0 0 0 0 0 0 0 0 0 0 0 0 0 127 0" result="hardAlpha"/>
<feOffset dy="8"/>
<feGaussianBlur stdDeviation="8"/>
<feColorMatrix type="matrix" values="0 0 0 0 0 0 0 0 0 0 0 0 0 0 0 0 0 0 0.08 0"/>
<feBlend mode="normal" in2="BackgroundImageFix" result="effect1_dropShadow_65_175"/>
<feColorMatrix in="SourceAlpha" type="matrix" values="0 0 0 0 0 0 0 0 0 0 0 0 0 0 0 0 0 0 127 0" result="hardAlpha"/>
<feOffset/>
<feGaussianBlur stdDeviation="2"/>
<feColorMatrix type="matrix" values="0 0 0 0 0 0 0 0 0 0 0 0 0 0 0 0 0 0 0.04 0"/>
<feBlend mode="normal" in2="effect1_dropShadow_65_175" result="effect2_dropShadow_65_175"/>
<feBlend mode="normal" in="SourceGraphic" in2="effect2_dropShadow_65_175" result="shape"/>
</filter>
<clipPath id="clip0_65_175">
<rect width="1440" height="533" fill="white" transform="translate(-230 -252)"/>
</clipPath>
<clipPath id="clip1_65_175">
<rect width="1407" height="269" fill="white" transform="translate(-168 -40)"/>
</clipPath>
</defs>
</svg>
