<svg width="16" height="16" viewBox="0 0 16 16" fill="none" xmlns="http://www.w3.org/2000/svg">
<g id="Icon" clip-path="url(#clip0_341_614)">
<path id="Vector" d="M15.05 2.82246C14.95 2.72246 14.825 2.67246 14.675 2.67246C14.525 2.67246 14.3833 2.72246 14.25 2.82246L7.5 9.57246L5.05 6.92246C4.95 6.82246 4.81667 6.76413 4.65 6.74746C4.48333 6.73079 4.34167 6.78079 4.225 6.89746C4.10833 7.01413 4.05 7.14746 4.05 7.29746C4.05 7.44746 4.1 7.57246 4.2 7.67246L7.05 10.7725C7.15 10.9058 7.28333 10.9725 7.45 10.9725C7.61667 10.9725 7.75 10.9225 7.85 10.8225L15.05 3.62246C15.1833 3.52246 15.25 3.38913 15.25 3.22246C15.25 3.05579 15.1833 2.92246 15.05 2.82246ZM14.95 7.72246C14.7833 7.72246 14.6417 7.77246 14.525 7.87246C14.4083 7.97246 14.35 8.10579 14.35 8.27246C14.35 9.43913 14.0667 10.5058 13.5 11.4725C12.9333 12.4391 12.1667 13.2058 11.2 13.7725C10.2333 14.3391 9.16667 14.6225 8 14.6225C6.83333 14.6225 5.76667 14.3391 4.8 13.7725C3.83333 13.2058 3.06667 12.4391 2.5 11.4725C1.93333 10.5058 1.65 9.43913 1.65 8.27246C1.65 7.10579 1.93333 6.03913 2.5 5.07246C3.06667 4.10579 3.83333 3.33913 4.8 2.77246C5.76667 2.20579 6.83333 1.92246 8 1.92246C8.16667 1.92246 8.3 1.86413 8.4 1.74746C8.5 1.63079 8.55 1.49746 8.55 1.34746C8.55 1.19746 8.5 1.06413 8.4 0.947461C8.3 0.830794 8.16667 0.772461 8 0.772461C6.63333 0.772461 5.375 1.10579 4.225 1.77246C3.075 2.43913 2.16667 3.34746 1.5 4.49746C0.833333 5.64746 0.5 6.90579 0.5 8.27246C0.5 9.63913 0.833333 10.8975 1.5 12.0475C2.16667 13.1975 3.075 14.1058 4.225 14.7725C5.375 15.4391 6.63333 15.7725 8 15.7725C9.36667 15.7725 10.625 15.4391 11.775 14.7725C12.925 14.1058 13.8333 13.1975 14.5 12.0475C15.1667 10.8975 15.5 9.63913 15.5 8.27246C15.5 8.10579 15.4417 7.97246 15.325 7.87246C15.2083 7.77246 15.0833 7.72246 14.95 7.72246Z" fill="#3A84C6"/>
</g>
<defs>
<clipPath id="clip0_341_614">
<rect width="15" height="15" fill="white" transform="matrix(1 0 0 -1 0.5 15.7725)"/>
</clipPath>
</defs>
</svg>
