<svg width="80" height="70" viewBox="0 0 80 70" fill="none" xmlns="http://www.w3.org/2000/svg">
<g clip-path="url(#clip0_341_632)">
<path d="M36.283 38.2029C36.135 38.1746 35.9824 38.1701 35.8326 38.1894C34.3278 38.0364 33.1927 36.9241 33.1901 35.6009C33.1901 35.2964 33.0516 35.0044 32.8052 34.789C32.5587 34.5737 32.2245 34.4527 31.8759 34.4527C31.5274 34.4527 31.1931 34.5737 30.9467 34.789C30.7002 35.0044 30.5618 35.2964 30.5618 35.6009C30.5657 37.8104 32.257 39.7458 34.6955 40.3305V41.4787C34.6955 41.7833 34.8339 42.0753 35.0804 42.2906C35.3268 42.506 35.6611 42.6269 36.0096 42.6269C36.3582 42.6269 36.6924 42.506 36.9389 42.2906C37.1854 42.0753 37.3238 41.7833 37.3238 41.4787V40.4C40.1383 39.8853 42.051 37.5951 41.7553 35.0963C41.4588 32.5975 39.0493 30.6987 36.1739 30.6981C34.5261 30.6981 33.1901 29.5308 33.1901 28.0911C33.1901 26.6514 34.5261 25.4841 36.1739 25.4841C37.8217 25.4841 39.1577 26.6513 39.1577 28.0911C39.1577 28.3956 39.2962 28.6877 39.5426 28.903C39.7891 29.1184 40.1234 29.2393 40.4719 29.2393C40.8204 29.2393 41.1547 29.1184 41.4012 28.903C41.6476 28.6877 41.7861 28.3956 41.7861 28.0911C41.7823 25.7712 39.9221 23.7702 37.3238 23.2914V22.2463C37.3238 21.9418 37.1854 21.6498 36.9389 21.4344C36.6924 21.2191 36.3582 21.0981 36.0096 21.0981C35.6611 21.0981 35.3268 21.2191 35.0804 21.4344C34.8339 21.6498 34.6955 21.9418 34.6955 22.2463V23.3615C31.9837 24.0084 30.2383 26.3088 30.6117 28.7432C30.9851 31.1775 33.3627 32.9944 36.1739 32.9939C37.8 32.9939 39.1264 34.1315 39.1558 35.5516C39.186 36.9718 37.9078 38.1512 36.283 38.2029Z" fill="#316CF9"/>
<path d="M17.1162 31.9343C17.1162 41.1299 25.6481 48.5843 36.173 48.5843C46.6978 48.5843 55.2297 41.1299 55.2297 31.9343C55.2297 22.7386 46.6978 15.2842 36.173 15.2842C25.6532 15.2942 17.1285 22.743 17.1162 31.9343ZM36.173 17.5806C45.2463 17.5806 52.6014 24.0068 52.6014 31.9343C52.6014 39.8617 45.2463 46.2879 36.173 46.2879C27.0996 46.2879 19.7445 39.8617 19.7445 31.9343C19.7549 24.0107 27.1041 17.5896 36.173 17.5806Z" fill="#316CF9"/>
<path d="M61.7085 51.4151L51.414 55.6648C50.7157 54.53 49.6871 53.5761 48.432 52.8994C47.177 52.2228 45.7399 51.8473 44.2657 51.8109L34.7623 51.5827C33.2572 51.5451 31.781 51.2121 30.4432 50.6083L29.4763 50.1706C27.0367 49.0596 24.3258 48.4807 21.5748 48.4832C18.8237 48.4858 16.1142 49.0696 13.6773 50.185L13.7376 48.271C13.7424 48.1202 13.7132 47.9701 13.6515 47.8293C13.5899 47.6884 13.4972 47.5595 13.3785 47.45C13.2599 47.3404 13.1177 47.2524 12.9601 47.1908C12.8025 47.1293 12.6326 47.0955 12.4601 47.0914L2.03905 46.8409C1.86654 46.8367 1.69477 46.8623 1.53357 46.9162C1.37237 46.97 1.2249 47.0511 1.09957 47.1548C0.974252 47.2584 0.873538 47.3827 0.803187 47.5204C0.732837 47.6581 0.694228 47.8065 0.689568 47.9572L0.060081 67.9373C0.0552689 68.088 0.084505 68.2382 0.146119 68.3791C0.207733 68.52 0.300518 68.6489 0.419172 68.7584C0.537826 68.868 0.680024 68.9561 0.837642 69.0176C0.99526 69.0791 1.16521 69.1129 1.33778 69.117L11.7586 69.3676H11.7946C12.137 69.3677 12.466 69.2511 12.7114 69.0425C12.9569 68.8339 13.0995 68.5498 13.1088 68.2507L13.1388 67.2948L15.846 66.0284C16.9082 65.5288 18.1513 65.4099 19.312 65.697L35.4786 69.6613C35.5068 69.6686 35.5349 69.6742 35.564 69.6799C36.7325 69.8934 37.9231 70.0007 39.1168 70C41.6451 70.0014 44.1439 69.525 46.4417 68.6035C46.4982 68.5809 46.5527 68.5547 46.6046 68.5248L70.0448 55.278C70.3261 55.119 70.5273 54.8721 70.6073 54.5879C70.6872 54.3036 70.64 54.0034 70.4752 53.7485C68.7351 51.0506 64.8752 50.023 61.7085 51.4151ZM2.72374 66.8531L3.28061 49.168L11.074 49.3553L10.5171 67.0409L2.72374 66.8531ZM45.2578 66.5525C42.4029 67.6782 39.2146 67.9891 36.1458 67.4412L20.023 63.487C18.2088 63.0389 16.2663 63.2245 14.6058 64.0044L13.2223 64.652L13.5926 52.8935C15.7449 51.6427 18.242 50.9195 20.8232 50.7992C23.4045 50.6789 25.9755 51.166 28.2679 52.2096L29.2349 52.6474C30.9249 53.4097 32.7893 53.8305 34.6904 53.8787L44.1945 54.1069C46.8639 54.174 49.131 55.8346 49.6726 58.1198L35.5163 57.7784C34.7906 57.7612 34.1867 58.2612 34.1662 58.8947C34.1567 59.1992 34.2859 59.4945 34.5255 59.7157C34.7651 59.9369 35.0954 60.0659 35.4439 60.0744L51.0662 60.45H51.1029C51.4451 60.4498 51.7737 60.333 52.0188 60.1244C52.264 59.9158 52.4064 59.6319 52.4157 59.3331C52.4319 58.8341 52.3894 58.3349 52.2887 57.8436L62.8476 53.4844C62.8579 53.4805 62.8681 53.4761 62.8785 53.4715C63.6098 53.1482 64.4368 53.0281 65.2484 53.1275C66.0601 53.2268 66.8175 53.5408 67.4189 54.0272L45.2578 66.5525ZM37.4876 12.0561V1.1482C37.4876 0.84368 37.3491 0.55163 37.1027 0.336301C36.8562 0.120971 36.522 0 36.1734 0C35.8249 0 35.4906 0.120971 35.2442 0.336301C34.9977 0.55163 34.8593 0.84368 34.8593 1.1482V12.0561C34.8593 12.3606 34.9977 12.6527 35.2442 12.868C35.4906 13.0834 35.8249 13.2043 36.1734 13.2043C36.522 13.2043 36.8562 13.0834 37.1027 12.868C37.3491 12.6527 37.4876 12.3606 37.4876 12.0561ZM47.3439 12.0561V6.88921C47.3439 6.58469 47.2054 6.29264 46.9589 6.07731C46.7125 5.86198 46.3782 5.74101 46.0297 5.74101C45.6811 5.74101 45.3469 5.86198 45.1004 6.07731C44.854 6.29264 44.7155 6.58469 44.7155 6.88921V12.0561C44.7155 12.3606 44.854 12.6527 45.1004 12.868C45.3469 13.0834 45.6811 13.2043 46.0297 13.2043C46.3782 13.2043 46.7125 13.0834 46.9589 12.868C47.2054 12.6527 47.3439 12.3606 47.3439 12.0561ZM27.6313 12.0561V6.88921C27.6313 6.58469 27.4929 6.29264 27.2464 6.07731C27 5.86198 26.6657 5.74101 26.3172 5.74101C25.9686 5.74101 25.6344 5.86198 25.3879 6.07731C25.1415 6.29264 25.003 6.58469 25.003 6.88921V12.0561C25.003 12.3606 25.1415 12.6527 25.3879 12.868C25.6344 13.0834 25.9686 13.2043 26.3172 13.2043C26.6657 13.2043 27 13.0834 27.2464 12.868C27.4929 12.6527 27.6313 12.3606 27.6313 12.0561Z" fill="#316CF9"/>
</g>
<defs>
<clipPath id="clip0_341_632">
<rect width="80" height="70" fill="white"/>
</clipPath>
</defs>
</svg>
