<svg width="35" height="32" viewBox="0 0 35 32" fill="none" xmlns="http://www.w3.org/2000/svg">
<path d="M33.5 7.14982C33.5 7.60359 33.2812 8.1792 32.5826 8.85398C31.8797 9.53297 30.7839 10.2136 29.3071 10.8169C26.3608 12.0206 22.1871 12.7996 17.5 12.7996C12.8129 12.7996 8.63919 12.0206 5.69295 10.8169C4.21613 10.2136 3.12029 9.53297 2.41737 8.85398C1.7188 8.1792 1.5 7.60359 1.5 7.14982C1.5 6.69605 1.7188 6.12044 2.41737 5.44566C3.12029 4.76667 4.21613 4.08608 5.69295 3.48271C8.63919 2.27899 12.8129 1.5 17.5 1.5C22.1871 1.5 26.3608 2.27899 29.3071 3.48271C30.7839 4.08608 31.8797 4.76667 32.5826 5.44566C33.2812 6.12044 33.5 6.69605 33.5 7.14982Z" fill="#316CF9" stroke="white" stroke-width="3"/>
<path d="M33.5 17.2436C33.5 17.6973 33.2812 18.2729 32.5826 18.9477C31.8797 19.6267 30.7839 20.3073 29.3071 20.9107C26.3608 22.1144 22.1871 22.8934 17.5 22.8934C12.8129 22.8934 8.63919 22.1144 5.69295 20.9107C4.21613 20.3073 3.12029 19.6267 2.41737 18.9477C1.7188 18.2729 1.5 17.6973 1.5 17.2436C1.5 16.7898 1.7188 16.2142 2.41737 15.5394C3.12029 14.8604 4.21613 14.1798 5.69295 13.5765C8.63919 12.3727 12.8129 11.5938 17.5 11.5938C22.1871 11.5938 26.3608 12.3727 29.3071 13.5765C30.7839 14.1798 31.8797 14.8604 32.5826 15.5394C33.2812 16.2142 33.5 16.7898 33.5 17.2436Z" fill="#316CF9" stroke="white" stroke-width="3"/>
<path d="M33.5 24.8141C33.5 25.2679 33.2812 25.8435 32.5826 26.5183C31.8797 27.1973 30.7839 27.8779 29.3071 28.4812C26.3608 29.685 22.1871 30.4639 17.5 30.4639C12.8129 30.4639 8.63919 29.685 5.69295 28.4812C4.21613 27.8779 3.12029 27.1973 2.41737 26.5183C1.7188 25.8435 1.5 25.2679 1.5 24.8141C1.5 24.3604 1.7188 23.7847 2.41737 23.11C3.12029 22.431 4.21613 21.7504 5.69295 21.147C8.63919 19.9433 12.8129 19.1643 17.5 19.1643C22.1871 19.1643 26.3608 19.9433 29.3071 21.147C30.7839 21.7504 31.8797 22.431 32.5826 23.11C33.2812 23.7847 33.5 24.3604 33.5 24.8141Z" fill="#316CF9" stroke="white" stroke-width="3"/>
</svg>
